<?xml version="1.0" standalone="no"?>
<!DOCTYPE svg PUBLIC "-//W3C//DTD SVG 20010904//EN"
 "http://www.w3.org/TR/2001/REC-SVG-20010904/DTD/svg10.dtd">
<svg version="1.0" xmlns="http://www.w3.org/2000/svg"
 width="195.000000pt" height="195.000000pt" viewBox="0 0 195.000000 195.000000"
 preserveAspectRatio="xMidYMid meet">
<metadata>
Created by potrace 1.16, written by Peter Selinger 2001-2019
</metadata>
<g transform="translate(0.000000,195.000000) scale(0.100000,-0.100000)"
fill="#000000" stroke="none">
<path d="M105 1930 c-10 -11 -38 -33 -62 -48 -41 -26 -43 -29 -43 -76 0 -38 6
-56 30 -86 17 -21 30 -45 30 -54 0 -8 9 -20 20 -26 17 -9 39 -74 28 -86 -8 -7
-96 35 -101 49 -3 6 -6 -201 -6 -460 l-1 -472 28 5 c19 4 34 0 45 -10 8 -9 27
-16 41 -16 33 0 67 -46 45 -62 -10 -6 -7 -7 11 -2 22 6 23 5 12 -9 -8 -9 -11
-25 -7 -36 4 -13 -2 -36 -13 -58 -34 -65 -75 -173 -68 -180 3 -4 50 4 104 16
124 30 218 45 236 38 7 -3 16 -20 19 -39 3 -18 11 -53 18 -76 l14 -44 -35 -29
c-93 -78 -114 -98 -103 -99 7 0 28 14 48 31 41 36 109 59 176 59 29 0 53 6 63
15 37 37 116 43 97 7 -10 -19 3 -110 22 -154 l12 -28 219 0 c147 0 231 4 253
12 27 10 38 10 53 0 13 -8 66 -12 154 -12 120 0 134 2 132 17 -1 12 12 22 39
31 34 11 45 11 81 -3 51 -19 167 -30 218 -21 l36 7 0 959 0 960 -913 0 c-903
0 -914 0 -932 -20z"/>
</g>
</svg>
